# xmcd CD database file
#
# Track frame offsets:
#	150
#	24052
#	40427
#	59902
#	76790
#	90747
#	121865
#	143755
#	166952
#	183962
#	200627
#	225742
#	242270
#	255025
#	284030
#	307200
#	333637
#
# Disc length: 4705 seconds
#
# Revision: 0
# Processed by: cddbd v1.5.2PL0 Copyright (c) Steve Scherf et al.
# Submitted via: CDex 1.70beta2
#
DISCID=e8125f11
DTITLE=Various Artist - ICRT Spirit 2 of A New Age
DYEAR=1997
DGENRE=New Age
TTITLE0=I Will Found You
TTITLE1=Desert of Sadness
TTITLE2=Mirage
TTITLE3=Echoes
TTITLE4=Millenium Theme
TTITLE5=Miracle Road
TTITLE6=Circle of Fire
TTITLE7=The Calling
TTITLE8=Celestine
TTITLE9=Well Balanced
TTITLE10=Astrae
TTITLE11=Still Dreaming
TTITLE12=The Hazel Woods
TTITLE13=Chenrsie, Flame of Peace and Compassion
TTITLE14=Contempt
TTITLE15=Ancestor's Voice
TTITLE16=淡季 Light Season
EXTD=YEAR: 1997
EXTT0=
EXTT1=
EXTT2=
EXTT3=
EXTT4=
EXTT5=
EXTT6=
EXTT7=
EXTT8=
EXTT9=
EXTT10=
EXTT11=
EXTT12=
EXTT13=
EXTT14=
EXTT15=
EXTT16=
PLAYORDER=
